<svg width="320" height="320" viewBox="0 0 320 320" fill="none" xmlns="http://www.w3.org/2000/svg">
  <defs>
    <radialGradient id="bearGlow" cx="0.5" cy="0.5" r="0.75">
      <stop offset="0%" stop-color="#F5F3FF" />
      <stop offset="60%" stop-color="#C4B5FD" />
      <stop offset="100%" stop-color="#4C1D95" />
    </radialGradient>
    <linearGradient id="bearBody" x1="0" y1="0" x2="1" y2="1">
      <stop offset="0%" stop-color="#EDE9FE" />
      <stop offset="100%" stop-color="#7C3AED" />
    </linearGradient>
  </defs>
  <rect width="320" height="320" rx="32" fill="#0F0A1C" />
  <circle cx="160" cy="160" r="115" fill="url(#bearGlow)" opacity="0.9" />
  <path d="M90 210 C100 150 140 120 160 120 C180 120 220 150 230 210 L200 240 C190 220 175 210 160 210 C145 210 130 220 120 240 Z" fill="url(#bearBody)" stroke="#DDD6FE" stroke-width="6" stroke-linejoin="round" />
  <circle cx="120" cy="155" r="20" fill="#4C1D95" />
  <circle cx="200" cy="155" r="20" fill="#4C1D95" />
  <circle cx="120" cy="155" r="9" fill="#F5F3FF" />
  <circle cx="200" cy="155" r="9" fill="#F5F3FF" />
  <path d="M150 195 Q160 210 170 195" stroke="#F5F3FF" stroke-width="6" stroke-linecap="round" />
  <rect x="135" y="125" width="50" height="12" rx="6" fill="#4C1D95" />
</svg>
