<svg width="320" height="320" viewBox="0 0 320 320" fill="none" xmlns="http://www.w3.org/2000/svg">
  <defs>
    <radialGradient id="owlGlow" cx="0.5" cy="0.4" r="0.65">
      <stop offset="0%" stop-color="#DDD6FE" />
      <stop offset="60%" stop-color="#A78BFA" />
      <stop offset="100%" stop-color="#4C1D95" />
    </radialGradient>
    <linearGradient id="owlFeather" x1="0" y1="0" x2="1" y2="1">
      <stop offset="0%" stop-color="#FDF2F8" />
      <stop offset="100%" stop-color="#C084FC" />
    </linearGradient>
  </defs>
  <rect width="320" height="320" rx="32" fill="#0B1120" />
  <circle cx="160" cy="140" r="110" fill="url(#owlGlow)" opacity="0.85" />
  <path d="M80 190 C95 140 120 115 160 100 C200 115 225 140 240 190 L210 220 C200 200 180 190 160 190 C140 190 120 200 110 220 Z" fill="url(#owlFeather)" stroke="#EDE9FE" stroke-width="6" stroke-linejoin="round" />
  <circle cx="125" cy="165" r="28" fill="#1E1B4B" stroke="#FDE68A" stroke-width="6" />
  <circle cx="195" cy="165" r="28" fill="#1E1B4B" stroke="#FDE68A" stroke-width="6" />
  <circle cx="125" cy="165" r="12" fill="#FDE68A" />
  <circle cx="195" cy="165" r="12" fill="#FDE68A" />
  <path d="M150 205 Q160 215 170 205" stroke="#FDE68A" stroke-width="5" stroke-linecap="round" />
  <path d="M120 130 Q160 160 200 130" stroke="#EDE9FE" stroke-width="6" stroke-linecap="round" />
</svg>
