<svg width="320" height="320" viewBox="0 0 320 320" fill="none" xmlns="http://www.w3.org/2000/svg">
  <defs>
    <radialGradient id="stagGlow" cx="0.5" cy="0.4" r="0.7">
      <stop offset="0%" stop-color="#DCFCE7" />
      <stop offset="60%" stop-color="#86EFAC" />
      <stop offset="100%" stop-color="#166534" />
    </radialGradient>
    <linearGradient id="stagBody" x1="0" y1="0" x2="1" y2="1">
      <stop offset="0%" stop-color="#F0FDF4" />
      <stop offset="100%" stop-color="#34D399" />
    </linearGradient>
  </defs>
  <rect width="320" height="320" rx="32" fill="#041C1D" />
  <circle cx="160" cy="150" r="110" fill="url(#stagGlow)" opacity="0.8" />
  <path d="M90 210 C110 150 140 110 160 105 C180 110 210 150 230 210 L195 230 C190 210 175 200 160 200 C145 200 130 210 125 230 Z" fill="url(#stagBody)" stroke="#BBF7D0" stroke-width="6" stroke-linejoin="round" />
  <path d="M110 120 C90 110 85 95 95 80 C100 100 120 110 135 105" stroke="#BBF7D0" stroke-width="6" stroke-linecap="round" />
  <path d="M210 120 C230 110 235 95 225 80 C220 100 200 110 185 105" stroke="#BBF7D0" stroke-width="6" stroke-linecap="round" />
  <circle cx="140" cy="165" r="10" fill="#052E16" />
  <circle cx="180" cy="165" r="10" fill="#052E16" />
  <path d="M150 195 Q160 210 170 195" stroke="#166534" stroke-width="6" stroke-linecap="round" />
</svg>
